# Blender 4.5.0
# www.blender.org
mtllib straight.mtl
o markings
v 0.031250 0.011000 -0.437500
v 0.031250 0.011000 -0.062500
v 0.031250 0.011000 -0.937500
v 0.031250 0.011000 -0.562500
v -0.031250 0.011000 -0.062500
v -0.031250 0.011000 0.937500
v 0.031250 0.011000 0.562500
v 0.031250 0.011000 0.937500
v 0.031250 0.011000 0.062500
v 0.031250 0.011000 0.437500
v -0.031250 0.011000 0.437500
v -0.031250 0.011000 -0.562500
v -0.031250 0.011000 -0.437500
v -0.031250 0.011000 0.562500
v -0.031250 0.011000 0.062500
v -0.031250 0.011000 -0.937500
vn -0.0000 1.0000 -0.0000
vt 0.000000 0.000000
s 1
usemtl white.001
f 6/1/1 8/1/1 7/1/1
f 3/1/1 12/1/1 4/1/1
f 1/1/1 5/1/1 2/1/1
f 9/1/1 11/1/1 10/1/1
f 6/1/1 7/1/1 14/1/1
f 3/1/1 16/1/1 12/1/1
f 1/1/1 13/1/1 5/1/1
f 9/1/1 15/1/1 11/1/1
o road
v -0.500000 0.010000 1.000000
v 0.500000 0.010000 1.000000
v -0.500000 0.010000 -1.000000
v 0.500000 0.010000 -1.000000
vn -0.0000 1.0000 -0.0000
vt 0.000000 0.000000
s 1
usemtl gray.001
f 20/2/2 17/2/2 18/2/2
f 20/2/2 19/2/2 17/2/2
