# Blender 4.5.1 LTS
# www.blender.org
mtllib outer.mtl
o floor
v -1.000000 0.000000 1.000000
v 1.000000 0.000000 1.000000
v -1.000000 -0.000000 -1.000000
v 1.000000 -0.000000 -1.000000
vn -0.0000 1.0000 -0.0000
vt 0.000000 0.000000
s 1
usemtl lime.001
f 2/1/1 3/1/1 1/1/1
f 3/1/1 2/1/1 4/1/1
o side
v -1.000000 -0.000000 -1.000000
v -1.000000 -0.200000 -1.000000
v 0.000000 -0.000000 -1.000000
v 1.000000 -0.000000 -1.000000
v 1.000000 0.000000 1.000000
v 1.000000 -0.200000 -1.000000
v 1.000000 -0.200000 1.000000
v 1.000000 0.000000 0.000000
vn 1.0000 -0.0000 -0.0000
vn -0.0000 -0.0000 -1.0000
vt 0.000000 0.000000
s 1
usemtl brown[F]
f 12/2/2 11/2/2 10/2/2
f 7/2/3 10/2/3 6/2/3
f 6/2/3 5/2/3 7/2/3
f 12/2/2 9/2/2 11/2/2
f 10/2/2 8/2/2 12/2/2
f 10/2/3 7/2/3 8/2/3
o side.001
v -1.000000 -0.000000 -1.000000
v 1.000000 -0.000000 -1.000000
v -0.500000 0.010000 -0.800000
v 0.500000 0.010000 -0.800000
v 0.000000 -0.000000 -1.000000
v 1.000000 -0.000000 -1.000000
v 1.000000 0.000000 1.000000
v 0.800000 0.010000 -0.500000
v 0.800000 0.010000 0.500000
v 1.000000 0.000000 0.000000
vn -0.0000 0.9988 -0.0499
vn 0.0499 0.9988 -0.0000
vt 0.000000 0.000000
s 1
usemtl orange
f 17/3/4 13/3/4 15/3/4
f 14/3/4 17/3/4 16/3/4
f 22/3/5 18/3/5 20/3/5
f 19/3/5 22/3/5 21/3/5
