# Blender 4.5.1 LTS
# www.blender.org
mtllib hill.mtl
o Cube
v -1.000000 -1.000000 -1.000000
v 1.000000 1.000000 -1.000000
v -1.000000 1.000000 -1.000000
vn -0.0000 -0.0000 -1.0000
vt 0.625000 0.250000
vt 0.625000 0.500000
s 1
usemtl lightGray
f 1/1/1 3/1/1 2/2/1
o Cube.005
v 1.000000 -1.000000 -1.000000
v -1.000000 -1.000000 -1.000000
v 1.000000 1.000000 -1.000000
vn -0.0000 -0.0000 -1.0000
vt 0.625000 0.250000
vt 0.625000 0.500000
s 1
usemtl gray
f 5/3/2 6/4/2 4/4/2
o Cube.004
v 1.000000 -1.000000 1.000000
v 1.000000 -1.000000 -1.000000
v 1.000000 1.000000 1.000000
vn 1.0000 -0.0000 -0.0000
vt 0.625000 0.250000
vt 0.625000 0.500000
s 1
usemtl gray.003
f 8/5/3 9/6/3 7/6/3
o Cube.006
v 1.000000 -1.000000 -1.000000
v 1.000000 1.000000 1.000000
v 1.000000 1.000000 -1.000000
vn 1.0000 -0.0000 -0.0000
vt 0.625000 0.250000
vt 0.625000 0.500000
s 1
usemtl lightGray.004
f 10/7/4 12/7/4 11/8/4
o Cube.007
v -1.000000 -1.000000 1.000000
v -1.000000 1.000000 -1.000000
v -1.000000 1.000000 1.000000
vn -1.0000 -0.0000 -0.0000
vt 0.625000 0.250000
vt 0.625000 0.500000
s 1
usemtl lightGray.005
f 13/9/5 15/9/5 14/10/5
o Cube.008
v -1.000000 -1.000000 1.000000
v 1.000000 -1.000000 1.000000
v -1.000000 1.000000 1.000000
vn -0.0000 -0.0000 1.0000
vt 0.625000 0.250000
vt 0.625000 0.500000
s 1
usemtl gray.004
f 17/11/6 18/12/6 16/12/6
o Cube.009
v -1.000000 -1.000000 -1.000000
v -1.000000 -1.000000 1.000000
v -1.000000 1.000000 -1.000000
vn -1.0000 -0.0000 -0.0000
vt 0.625000 0.250000
vt 0.625000 0.500000
s 1
usemtl gray.005
f 20/13/7 21/14/7 19/14/7
o Cube.010
v 1.000000 -1.000000 1.000000
v -1.000000 1.000000 1.000000
v 1.000000 1.000000 1.000000
vn -0.0000 -0.0000 1.0000
vt 0.625000 0.250000
vt 0.625000 0.500000
s 1
usemtl lightGray.006
f 22/15/8 24/15/8 23/16/8
o Cube.001
v 1.000000 0.800000 -1.300000
v -1.000000 0.800000 -1.300000
v 0.850000 1.200000 -0.850000
v -1.300000 0.800000 -1.000001
v -0.850107 1.200000 -0.849894
v 1.000000 0.800000 1.300000
v 1.300000 0.800000 1.000000
v 1.300001 0.800000 -1.000000
v 0.850107 1.200000 0.849894
v -1.000000 0.800000 1.300000
v 1.000000 0.800000 1.300000
v -0.850000 1.200000 0.850000
v 0.850106 1.200000 0.849894
v -1.300000 0.800000 -1.000001
v -1.300001 0.800000 0.999999
v -0.850107 1.200000 -0.849894
vn -0.1467 0.7180 -0.6804
vn 0.3988 0.8419 -0.3635
vn 0.2407 0.7639 -0.5988
vn -0.4187 0.8343 -0.3586
vn -0.5988 0.7638 -0.2409
vn 0.5772 0.7471 -0.3296
vn 0.3975 0.8555 0.3319
vn 0.5988 0.7638 0.2408
vn 0.1259 0.7299 0.6718
vn 0.1138 0.6742 0.7298
vn -0.3712 0.8452 0.3845
vn -0.2407 0.7639 0.5988
vn -0.0000 0.7475 0.6643
vn -0.5884 0.7520 0.2971
vn -0.2913 0.9499 -0.1135
vn -0.6645 0.7473 -0.0000
vt 0.625000 0.250000
vt 0.625000 0.500000
vt 0.000000 0.000000
s 1
usemtl lime[F]
f 26/17/9 27/18/10 25/18/11
f 29/19/12 27/18/10 26/17/9
f 29/18/12 26/17/9 28/18/13
f 27/18/10 32/19/14 25/18/11
usemtl lime.040
f 33/18/15 30/17/17 31/18/16
usemtl lime.043
f 32/17/14 33/18/15 31/18/16
f 33/18/15 32/19/14 27/18/10
usemtl lime.044
f 35/17/18 36/18/19 34/18/20
f 36/18/19 35/17/18 37/19/21
f 36/18/19 39/19/22 34/18/20
usemtl lime.051
f 39/19/22 40/18/23 38/19/24
f 40/18/23 39/19/22 36/18/19
