# Blender 4.5.1 LTS
# www.blender.org
mtllib 3.mtl
o Cube.001
v 1.000000 4.300000 -1.500000
v -1.000000 4.300000 -1.500000
v 1.000000 4.700000 -0.900000
v -1.000000 4.700000 -0.900000
vn -0.0000 0.8321 -0.5547
vt 0.625000 0.250000
vt 0.625000 0.500000
s 0
usemtl lime
f 2/1/1 3/2/1 1/2/1
f 2/1/1 4/1/1 3/2/1
o Cube.002
v 1.000000 4.300000 -1.500000
v -1.000000 4.300000 -1.500000
v 1.000000 4.000000 -1.200000
v -1.000000 4.000000 -1.200000
vn -0.0000 -0.7071 -0.7071
vt 0.625000 0.500000
vt 0.625000 0.250000
s 0
usemtl green
f 5/3/2 8/4/2 6/4/2
f 5/3/2 7/3/2 8/4/2
o Cube.005
v -1.000000 2.000000 -1.200000
v 1.000000 2.000000 -1.200000
v -0.210904 0.703412 -0.381063
v 1.000000 2.000000 -1.200000
v -1.000000 2.000000 -1.200000
v -1.000000 1.000000 -1.000000
v 1.000000 1.000000 -1.000000
v 1.000000 1.000000 -1.000000
v -1.000000 2.000000 -1.200000
v -1.000000 1.000000 -1.000000
v -1.000000 -1.000000 -1.000000
v 1.000000 4.000000 -1.200000
v -1.000000 4.000000 -1.200000
v 0.000000 -1.000000 -1.000000
v -1.000000 0.000000 -1.000000
v 0.000000 4.000000 -1.200000
v -0.059808 3.564388 -1.434758
v 1.000000 2.000000 -1.200000
v 0.500000 4.000000 -1.200000
v -0.500000 4.000000 -1.200000
v 0.143636 -0.226690 -0.628962
v -0.210904 1.759406 -0.609599
v 1.000000 1.000000 -1.000000
v 1.000000 -1.000000 -1.000000
v -1.000000 2.000000 -1.200000
v 0.000000 -1.000000 -1.000000
v 1.000000 0.000000 -1.000000
v -1.000000 0.000000 -1.000000
v 1.000000 2.000000 -1.200000
vn -0.0000 0.4744 -0.8803
vn -0.0000 0.4326 -0.9016
vn 0.3086 -0.0000 -0.9512
vn 0.5991 -0.0000 -0.8007
vn -0.0000 -0.0000 -1.0000
vn 0.3301 0.0825 -0.9403
vn -0.3976 -0.0000 -0.9176
vn -0.4656 0.0579 -0.8831
vn -0.4527 0.4527 -0.7682
vt 0.000000 0.000000
s 0
usemtl lightGray
f 28/5/3 24/5/3 25/5/3
f 29/5/4 34/5/4 19/5/4
f 29/5/5 19/5/5 36/5/5
f 30/5/6 33/5/6 21/5/6
f 24/5/3 27/5/3 25/5/3
f 27/5/7 20/5/7 37/5/7
f 25/5/8 27/5/8 37/5/8
f 35/5/9 29/5/9 31/5/9
f 29/5/10 11/5/10 31/5/10
f 29/5/11 35/5/11 34/5/11
f 35/5/7 32/5/7 34/5/7
l 14 13
l 12 15
l 22 19
l 23 19
l 21 17
l 26 20
l 18 17
l 26 16
o Cube.003
v -0.210904 0.703412 -0.381063
v -1.000000 4.000000 -1.200000
v -0.059808 3.564388 -1.434758
v -0.500000 4.000000 -1.200000
v 0.143636 -0.226690 -0.628962
v -0.210904 1.759406 -0.609599
v 1.000000 1.000000 -1.000000
v -1.000000 2.000000 -1.200000
v -1.000000 1.000000 -1.000000
v -1.000000 0.000000 -1.000000
v 1.000000 2.000000 -1.200000
vn -0.6479 -0.2712 -0.7118
vn 0.5588 -0.1626 -0.8132
vn 0.5663 -0.1743 -0.8055
vn 0.3519 0.3640 -0.8624
vn 0.6172 -0.0000 -0.7868
vn -0.0000 -0.2548 -0.9670
vn -0.3483 -0.3655 -0.8632
vn -0.4021 -0.1796 -0.8978
vn -0.4087 -0.1931 -0.8920
vt 0.000000 0.000000
s 0
usemtl gray
f 40/6/12 43/6/12 41/6/12
f 43/6/13 46/6/13 45/6/13
f 43/6/14 38/6/14 46/6/14
f 38/6/15 42/6/15 47/6/15
f 46/6/16 38/6/16 47/6/16
f 41/6/17 43/6/17 39/6/17
f 40/6/18 48/6/18 43/6/18
f 44/6/19 43/6/19 48/6/19
f 43/6/20 44/6/20 38/6/20
o Plane
v 0.000000 0.000000 -0.200000
v -1.000000 -0.000000 -1.000000
v 1.000000 -0.000000 -1.000000
vn -0.0000 1.0000 -0.0000
vt 0.000000 0.000000
s 1
usemtl lime.001
f 49/7/21 51/7/21 50/7/21
