# Blender 4.5.1 LTS
# www.blender.org
mtllib side.mtl
o side
v -1.000000 0.000000 1.000000
v 1.000000 0.000000 1.000000
v -1.000000 -0.200000 1.000000
v 1.000000 -0.200000 1.000000
v 0.000000 0.000000 1.000000
vn -0.0000 -0.0000 -1.0000
vt 0.000000 0.000000
s 1
usemtl brown[F]
f 5/1/1 4/1/1 3/1/1
f 5/1/1 3/1/1 1/1/1
f 4/1/1 5/1/1 2/1/1
o water
v -1.000000 -0.200000 1.000000
v 1.000000 -0.200000 1.000000
v -1.000000 -0.200000 -1.000000
v 1.000000 -0.200000 -1.000000
vn -0.0000 1.0000 -0.0000
vt 0.000000 0.000000
s 1
usemtl cyan.001
f 7/2/2 8/2/2 6/2/2
f 8/2/2 7/2/2 9/2/2
o side.001
v -1.000000 0.000000 1.000000
v 1.000000 0.000000 1.000000
v -0.500000 0.010000 1.200000
v 0.500000 0.010000 1.200000
v 0.000000 0.000000 1.000000
vn -0.0000 0.9988 -0.0499
vt 0.000000 0.000000
s 1
usemtl orange
f 14/3/3 10/3/3 12/3/3
f 11/3/3 14/3/3 13/3/3
