# Blender 4.5.1 LTS
# www.blender.org
mtllib gate.mtl
o walls
v 0.025000 0.200000 -1.000000
v 0.025000 1.000000 -1.000000
v 0.025000 0.200000 -0.500000
v 0.025000 1.000000 -0.500000
v 0.025000 0.600000 -0.500000
v 0.025000 1.000000 -0.000000
v 0.025000 0.840000 -0.290000
v -0.025000 0.200000 -0.500000
v -0.025000 0.600000 -0.500000
v -0.025000 0.600000 -0.500000
v -0.025000 0.840000 -0.290000
v -0.025000 1.000000 -0.000000
v -0.025000 0.200000 -1.000000
v -0.025000 1.000000 -1.000000
v -0.025000 0.600000 -0.500000
v -0.025000 1.000000 -0.500000
v 0.025000 0.200000 1.000000
v 0.025000 1.000000 1.000000
v 0.025000 0.200000 0.500000
v 0.025000 1.000000 0.500000
v 0.025000 0.600000 0.500000
v 0.025000 0.840000 0.290000
v -0.025000 0.200000 0.500000
v -0.025000 0.600000 0.500000
v -0.025000 0.600000 0.500000
v -0.025000 0.840000 0.290000
v -0.025000 0.200000 1.000000
v -0.025000 1.000000 1.000000
v -0.025000 0.600000 0.500000
v -0.025000 1.000000 0.500000
vn 1.0000 -0.0000 -0.0000
vn -0.0000 -0.0000 1.0000
vn -0.0000 -0.6585 0.7526
vn -0.0000 -0.8756 0.4831
vn -1.0000 -0.0000 -0.0000
vn -0.0000 -0.0000 -1.0000
vn -0.0000 -0.6585 -0.7526
vn -0.0000 -0.8756 -0.4831
vt 0.000000 0.000000
s 0
usemtl lightGray[F]
f 5/1/1 1/1/1 2/1/1
f 3/1/1 1/1/1 5/1/1
f 2/1/1 4/1/1 5/1/1
f 6/1/1 7/1/1 4/1/1
f 4/1/1 7/1/1 5/1/1
f 5/1/2 8/1/2 3/1/2
f 7/1/3 11/1/3 5/1/3
f 11/1/3 10/1/3 5/1/3
f 12/1/4 11/1/4 7/1/4
f 7/1/4 6/1/4 12/1/4
f 8/1/5 10/1/5 13/1/5
f 14/1/5 13/1/5 15/1/5
f 11/1/5 16/1/5 15/1/5
f 15/1/5 16/1/5 14/1/5
f 11/1/5 12/1/5 16/1/5
f 21/1/1 18/1/1 17/1/1
f 19/1/1 21/1/1 17/1/1
f 18/1/1 21/1/1 20/1/1
f 6/1/1 20/1/1 22/1/1
f 20/1/1 21/1/1 22/1/1
f 23/1/6 21/1/6 19/1/6
f 22/1/7 21/1/7 26/1/7
f 26/1/7 21/1/7 25/1/7
f 12/1/8 22/1/8 26/1/8
f 22/1/8 12/1/8 6/1/8
f 23/1/5 27/1/5 25/1/5
f 28/1/5 29/1/5 27/1/5
f 26/1/5 29/1/5 30/1/5
f 29/1/5 28/1/5 30/1/5
f 26/1/5 30/1/5 12/1/5
f 5/1/2 9/1/2 8/1/2
f 23/1/6 24/1/6 21/1/6
l 5 15
l 21 29
o roof
v 0.125000 0.901000 0.000000
v 0.025000 1.001000 -0.000000
v 0.025000 1.001000 -1.000000
v -0.025000 1.001000 -1.000000
v -0.025000 1.001000 -0.000000
v 0.125000 0.901000 -1.000000
v -0.125000 0.901000 -1.000000
v -0.125000 0.901000 0.000000
v 0.025000 1.001000 1.000000
v -0.025000 1.001000 1.000000
v 0.125000 0.901000 1.000000
v -0.125000 0.901000 1.000000
vn 0.7071 0.7071 -0.0000
vn -0.0000 1.0000 -0.0000
vn -0.7071 0.7071 -0.0000
vt 0.000000 0.000000
s 0
usemtl gray[F]
f 33/2/9 31/2/9 36/2/9
f 32/2/9 31/2/9 33/2/9
f 34/2/10 32/2/10 33/2/10
f 34/2/10 35/2/10 32/2/10
f 35/2/11 37/2/11 38/2/11
f 34/2/11 37/2/11 35/2/11
f 39/2/9 41/2/9 31/2/9
f 32/2/9 39/2/9 31/2/9
f 40/2/10 39/2/10 32/2/10
f 40/2/10 32/2/10 35/2/10
f 35/2/11 38/2/11 42/2/11
f 40/2/11 35/2/11 42/2/11
o walls.001
v 0.025000 0.200000 -1.000000
v 0.075000 -0.000000 -1.000000
v -0.075000 -0.000000 -1.000000
v 0.025000 0.200000 -0.500000
v 0.075000 -0.000000 -0.500000
v -0.075000 -0.000000 -0.500000
v -0.025000 0.200000 -0.500000
v -0.025000 0.200000 -1.000000
v 0.025000 0.200000 1.000000
v 0.075000 0.000000 1.000000
v -0.075000 0.000000 1.000000
v 0.025000 0.200000 0.500000
v 0.075000 0.000000 0.500000
v -0.075000 0.000000 0.500000
v -0.025000 0.200000 0.500000
v -0.025000 0.200000 1.000000
vn -0.6732 0.5289 -0.5168
vn 0.7261 -0.5675 -0.3882
vn 0.7743 -0.6327 0.0127
vn -0.0000 -0.0000 1.0000
vn -0.7941 0.3006 0.5282
vn -0.9701 0.2425 -0.0000
vn -0.6449 0.1612 -0.7471
vn -0.6347 0.1586 -0.7563
vn -0.6732 0.5289 0.5168
vn 0.7743 -0.6327 -0.0127
vn 0.7261 -0.5675 0.3882
vn -0.0000 -0.0000 -1.0000
vn -0.7941 0.3006 -0.5282
vn -0.6448 0.1611 0.7471
vn -0.6346 0.1586 0.7563
vt 0.000000 0.000000
s 1
usemtl white
f 43/3/12 47/3/13 44/3/14
s 0
f 49/3/15 48/3/15 47/3/15
s 1
f 47/3/13 46/3/16 49/3/15
s 0
f 45/3/17 48/3/17 49/3/17
s 1
f 45/3/18 49/3/17 50/3/19
f 47/3/13 43/3/12 46/3/16
f 51/3/20 52/3/21 55/3/22
s 0
f 57/3/23 55/3/23 56/3/23
s 1
f 55/3/22 57/3/23 54/3/24
s 0
f 53/3/17 57/3/17 56/3/17
s 1
f 53/3/25 58/3/26 57/3/17
f 55/3/22 54/3/24 51/3/20
o markings
v 0.437500 0.011000 0.031250
v 0.062500 0.011000 0.031250
v 0.937500 0.011000 0.031250
v 0.562500 0.011000 0.031250
v 0.062500 0.011000 -0.031250
v -0.937500 0.011000 -0.031250
v -0.562500 0.011000 0.031250
v -0.937500 0.011000 0.031250
v -0.062500 0.011000 0.031250
v -0.437500 0.011000 0.031250
v -0.437500 0.011000 -0.031250
v 0.562500 0.011000 -0.031250
v 0.437500 0.011000 -0.031250
v -0.562500 0.011000 -0.031250
v -0.062500 0.011000 -0.031250
v 0.937500 0.011000 -0.031250
vn -0.0000 1.0000 -0.0000
vt 0.000000 0.000000
s 1
usemtl white
f 64/4/27 66/4/27 65/4/27
f 61/4/27 70/4/27 62/4/27
f 59/4/27 63/4/27 60/4/27
f 67/4/27 69/4/27 68/4/27
f 64/4/27 65/4/27 72/4/27
f 61/4/27 74/4/27 70/4/27
f 59/4/27 71/4/27 63/4/27
f 67/4/27 73/4/27 69/4/27
o road
v -1.000000 0.010000 -0.500000
v -1.000000 0.010000 0.500000
v 1.000000 0.010000 -0.500000
v 1.000000 0.010000 0.500000
vn -0.0000 1.0000 -0.0000
vt 0.000000 0.000000
s 1
usemtl gray
f 78/5/28 75/5/28 76/5/28
f 78/5/28 77/5/28 75/5/28
