# Blender 4.5.1 LTS
# www.blender.org
mtllib wall.mtl
o walls
v 0.025000 0.200000 -1.000000
v 0.025000 1.000000 -1.000000
v 0.025000 0.200000 1.000000
v 0.025000 1.000000 1.000000
v -0.025000 0.200000 1.000000
v -0.025000 0.200000 -1.000000
v -0.025000 1.000000 -1.000000
v -0.025000 1.000000 1.000000
vn 1.0000 -0.0000 -0.0000
vn -1.0000 -0.0000 -0.0000
vt 0.000000 0.000000
s 0
usemtl lightGray[F]
f 2/1/1 4/1/1 3/1/1
f 6/1/2 5/1/2 7/1/2
f 8/1/2 7/1/2 5/1/2
f 1/1/1 2/1/1 3/1/1
o roof
v 0.125000 0.901000 0.000000
v 0.025000 1.001000 -0.000000
v 0.025000 1.001000 -1.000000
v -0.025000 1.001000 -1.000000
v -0.025000 1.001000 -0.000000
v 0.125000 0.901000 -1.000000
v -0.125000 0.901000 -1.000000
v -0.125000 0.901000 0.000000
v 0.025000 1.001000 1.000000
v -0.025000 1.001000 1.000000
v 0.125000 0.901000 1.000000
v -0.125000 0.901000 1.000000
vn 0.7071 0.7071 -0.0000
vn -0.0000 1.0000 -0.0000
vn -0.7071 0.7071 -0.0000
vt 0.000000 0.000000
s 0
usemtl gray[F]
f 11/2/3 9/2/3 14/2/3
f 10/2/3 9/2/3 11/2/3
f 12/2/4 10/2/4 11/2/4
f 12/2/4 13/2/4 10/2/4
f 13/2/5 15/2/5 16/2/5
f 12/2/5 15/2/5 13/2/5
f 17/2/3 19/2/3 9/2/3
f 10/2/3 17/2/3 9/2/3
f 18/2/4 17/2/4 10/2/4
f 18/2/4 10/2/4 13/2/4
f 13/2/5 16/2/5 20/2/5
f 18/2/5 13/2/5 20/2/5
o walls.001
v 0.025000 0.200000 -1.000000
v 0.075000 -0.000000 -1.000000
v -0.075000 -0.000000 -1.000000
v 0.025000 0.200000 1.000000
v 0.075000 -0.000000 1.000000
v -0.075000 -0.000000 1.000000
v -0.025000 0.200000 1.000000
v -0.025000 0.200000 -1.000000
vn -0.6732 0.5289 -0.5168
vn 0.7261 -0.5675 -0.3882
vn 0.7743 -0.6327 0.0127
vn -0.9701 0.2425 -0.0000
vn -0.6287 0.2254 -0.7442
vn -0.6346 0.1586 -0.7564
vn -0.7941 0.3007 0.5282
vt 0.000000 0.000000
s 1
usemtl white
f 21/3/6 25/3/7 22/3/8
s 0
f 23/3/9 26/3/9 27/3/9
s 1
f 23/3/10 27/3/9 28/3/11
f 25/3/7 21/3/6 24/3/12
