# Blender 4.5.1 LTS
# www.blender.org
mtllib sea.mtl
o sand
v -1.000000 0.000000 1.000000
v 1.000000 0.000000 1.000000
v -1.000000 -1.000000 1.000000
v 1.000000 -1.000000 1.000000
v 1.000000 0.000000 1.000000
v -1.000000 -0.200000 -1.000000
v 1.000000 -0.200000 -1.000000
vn -0.0000 0.9950 -0.0995
vn -0.0000 0.7071 0.7071
vn -0.0000 -0.0000 1.0000
vn -0.0000 0.4472 0.8944
vt 0.000000 0.000000
s 1
usemtl yellow
f 5/1/1 6/1/1 1/1/1
f 1/1/2 4/1/3 2/1/4
f 5/1/1 7/1/1 6/1/1
f 1/1/2 3/1/3 4/1/3
o wanter
v -1.000000 -0.200000 0.000000
v 1.000000 -0.200000 0.000000
v -1.000000 -0.200000 -71.000000
v 1.000000 -0.200000 -71.000000
vn -0.0000 0.9950 -0.0995
vt 0.000000 0.000000
s 1
usemtl cyan
f 9/2/5 10/2/5 8/2/5
f 9/2/5 11/2/5 10/2/5
o corns
v 1.000000 -0.040000 0.500000
v 0.500000 -0.140000 -0.500000
v 0.000000 -0.015000 0.750000
v 0.250000 -0.190000 -1.000000
v -0.250000 -0.140000 -0.500000
v 0.500000 -0.065000 0.250000
v -0.500000 -0.065000 0.250000
v -0.750000 -0.165000 -0.750000
v -0.750000 -0.115000 -0.250000
v 0.000000 -0.002500 0.875000
v 1.000000 -0.027500 0.625000
v 0.375000 -0.190000 -1.000000
v -0.125000 -0.140000 -0.500000
v 0.875000 -0.040000 0.500000
v -0.500000 -0.052500 0.375000
v 0.500000 -0.152500 -0.625000
v 0.500000 -0.077500 0.125000
v 0.625000 -0.140000 -0.500000
v 0.250000 -0.177500 -0.875000
v -0.625000 -0.065000 0.250000
v 0.125000 -0.015000 0.750000
v -0.625000 -0.165000 -0.750000
v -0.750000 -0.177500 -0.875000
v -0.875000 -0.115000 -0.250000
v -0.750000 -0.127500 -0.375000
v -0.250000 -0.152500 -0.625000
v 0.625000 -0.065000 0.250000
v 0.625000 -0.152500 -0.625000
v 0.625000 -0.077500 0.125000
v -0.125000 -0.152500 -0.625000
v -0.875000 -0.127500 -0.375000
v 0.125000 -0.002500 0.875000
v -0.625000 -0.052500 0.375000
v 0.375000 -0.177500 -0.875000
v 0.875000 -0.027500 0.625000
v -0.625000 -0.177500 -0.875000
vn -0.0000 0.9950 -0.0995
vt 0.000000 0.000000
s 0
usemtl orange
f 22/3/6 25/3/6 46/3/6
f 26/3/6 31/3/6 44/3/6
f 29/3/6 27/3/6 13/3/6
f 38/3/6 28/3/6 17/3/6
f 24/3/6 37/3/6 16/3/6
f 20/3/6 42/3/6 35/3/6
f 43/3/6 14/3/6 21/3/6
f 45/3/6 15/3/6 30/3/6
f 33/3/6 34/3/6 19/3/6
f 22/3/6 12/3/6 25/3/6
f 26/3/6 18/3/6 31/3/6
f 29/3/6 39/3/6 27/3/6
f 38/3/6 40/3/6 28/3/6
f 24/3/6 41/3/6 37/3/6
f 20/3/6 36/3/6 42/3/6
f 43/3/6 32/3/6 14/3/6
f 45/3/6 23/3/6 15/3/6
f 33/3/6 47/3/6 34/3/6
