# Blender 4.5.1 LTS
# www.blender.org
mtllib 1.mtl
o Cube
v 1.000000 1.000000 -1.000000
v 1.000000 -1.000000 -1.000000
v 1.000000 2.000000 -1.200000
v -1.000000 2.000000 -1.200000
v -1.000000 1.000000 -1.000000
v -1.000000 -1.000000 -1.000000
v 1.000000 4.000000 -1.200000
v -1.000000 4.000000 -1.200000
vn -0.0000 -0.0000 -1.0000
vt 0.625000 0.250000
vt 0.375000 0.500000
vt 0.375000 0.250000
vt 0.625000 0.500000
s 0
usemtl lightGray
f 5/1/1 2/2/1 6/3/1
f 4/1/1 7/4/1 3/4/1
f 5/1/1 1/4/1 2/2/1
f 4/1/1 8/1/1 7/4/1
o Cube.001
v 1.000000 4.300000 -1.500000
v -1.000000 4.300000 -1.500000
v 1.000000 4.700000 -0.900000
v -1.000000 4.700000 -0.900000
vn -0.0000 0.8321 -0.5547
vt 0.625000 0.250000
vt 0.625000 0.500000
s 0
usemtl lime
f 10/5/2 11/6/2 9/6/2
f 10/5/2 12/5/2 11/6/2
o Cube.002
v 1.000000 4.300000 -1.500000
v -1.000000 4.300000 -1.500000
v 1.000000 4.000000 -1.200000
v -1.000000 4.000000 -1.200000
vn -0.0000 -0.7071 -0.7071
vt 0.625000 0.500000
vt 0.625000 0.250000
s 0
usemtl green
f 13/7/3 16/8/3 14/8/3
f 13/7/3 15/7/3 16/8/3
o Cube.003
v 1.000000 2.000000 -1.200000
v -1.000000 2.000000 -1.200000
v -1.000000 1.000000 -1.000000
v 1.000000 1.000000 -1.000000
vn -0.0000 -0.1961 -0.9806
vt 0.625000 0.250000
vt 0.625000 0.500000
s 0
usemtl gray
f 19/9/4 17/10/4 20/10/4
f 19/9/4 18/9/4 17/10/4
